<mxfile host="app.diagrams.net" modified="2024-05-06T21:09:33.457Z" agent="Mozilla/5.0 (Windows NT 10.0; Win64; x64) AppleWebKit/537.36 (KHTML, like Gecko) Chrome/121.0.0.0 Safari/537.36 OPR/107.0.0.0" version="24.3.1" etag="Ts_YBzFk5EEj3eya3M-B" type="github">
  <diagram name="PÃ¡gina-1" id="ywX7xWtfstwHdUMh6tQ8">
    <mxGraphModel>
      <root>
        <mxCell id="0" />
        <mxCell id="1" parent="0" />
      </root>
    </mxGraphModel>
  </diagram>
</mxfile>
